<svg width="3000" height="3000" viewBox="0 0 3000 3000" fill="none" xmlns="http://www.w3.org/2000/svg">
<g clip-path="url(#clip0_1035_70)">
<path d="M1576.77 319.719L1419.47 320.165L1425.36 403.337C1378.11 406.59 1331.01 412.883 1284.39 422.216L1267.82 340.514L1115.98 381.561L1142.98 460.44C1098.34 475.752 1054.45 494.008 1011.61 515.21L974.563 440.495L838.208 519.647L884.751 588.825C845.032 615.54 807.351 644.625 771.862 675.837L716.565 613.46L605.349 725.255L668.399 779.823C637.153 815.711 608.314 853.513 582.04 892.971L512.401 847.081L434.136 983.532L509.11 1020.02C488.301 1062.57 470.205 1106.49 454.976 1151.54L375.937 1125.04L335.565 1277.06L417.372 1293.12C408.314 1339.43 402.183 1386.56 399.122 1434.27L315.894 1429L316.263 1586.66L399.444 1580.94C402.721 1628.7 409.069 1675.87 418.354 1722.21L336.685 1738.91L377.894 1891.13L456.679 1863.81C472.135 1908.81 490.455 1952.69 511.489 1995.17L436.925 2032.53L515.964 2168.54L585.048 2121.85C611.491 2161.15 640.485 2198.78 671.88 2234.49L609.409 2289.69L720.876 2400.66L775.69 2337.85C811.27 2368.85 849.023 2397.73 888.806 2424.23L842.624 2493.67L979.351 2572.18L1015.99 2497.29C1058.98 2518.33 1103.01 2536.42 1147.79 2551.55L1121.41 2630.62L1273.84 2671.04L1289.57 2589.16C1336.28 2598.27 1383.43 2604.34 1430.74 2607.37L1425.82 2690.62L1583.12 2690.18L1577.23 2607C1624.48 2603.75 1671.57 2597.46 1718.2 2588.13L1734.77 2669.83L1886.61 2628.78L1859.61 2549.9C1904.25 2534.59 1948.13 2516.33 1990.98 2495.13L2028.03 2569.85L2164.38 2490.69L2117.84 2421.52C2157.56 2394.8 2195.24 2365.72 2230.73 2334.5L2286.02 2396.88L2397.24 2285.09L2334.19 2230.52C2365.44 2194.63 2394.28 2156.83 2420.55 2117.37L2490.19 2163.26L2568.45 2026.81L2493.48 1990.32C2514.29 1947.77 2532.38 1903.85 2547.61 1858.8L2626.65 1885.31L2667.02 1733.29L2585.22 1717.22C2594.28 1670.91 2600.41 1623.78 2603.47 1576.07L2686.7 1581.35L2686.33 1423.68L2602.97 1426.94C2599.69 1380.63 2593.52 1334.88 2584.58 1289.9L2665.91 1271.43L2624.7 1119.22L2545.91 1146.54C2530.46 1101.53 2512.14 1057.66 2491.1 1015.17L2565.67 977.809L2486.63 841.803L2417.54 888.491C2391.1 849.195 2362.1 811.56 2330.71 775.848L2393.18 720.649L2281.71 609.678L2226.9 672.493C2191.32 641.492 2153.57 612.615 2113.79 586.112L2159.97 516.671L2023.24 438.161L1986.6 513.055C1943.61 492.015 1899.58 473.925 1854.8 458.796L1881.17 379.719L1728.75 339.302L1713.01 421.188C1666.31 412.072 1619.16 406 1571.85 402.975L1576.77 319.719ZM1501.3 509.573C1673.19 509.573 1845.08 554.034 1999.09 642.958C2307.13 820.804 2496.89 1149.48 2496.89 1505.17C2496.89 1860.86 2307.13 2189.54 1999.09 2367.38C1691.06 2545.23 1311.54 2545.23 1003.5 2367.38C695.458 2189.54 505.698 1860.86 505.698 1505.17C505.698 1149.48 695.458 820.804 1003.5 642.958C1157.52 554.034 1329.41 509.573 1501.3 509.573Z" fill="white"/>
<path d="M476.681 2470.16L551.479 2395.63L566.529 2410.73L504.283 2472.76L533.467 2502.04L595.714 2440.01L610.764 2455.12L535.966 2529.65L476.681 2470.16Z" fill="white"/>
<path d="M402.689 2384.6L355.533 2322.09L369.793 2311.33L404.108 2356.82L422.796 2342.72L390.867 2300.4L405.069 2289.68L436.999 2332L459.941 2314.69L424.412 2267.6L438.614 2256.88L486.985 2321L402.689 2384.6Z" fill="white"/>
<path d="M294.752 2228.93L277.973 2199.11C271.615 2187.82 267.931 2180.19 266.92 2176.24C265.334 2170.19 265.863 2164.08 268.507 2157.91C271.108 2151.76 276.071 2146.63 283.395 2142.51C289.045 2139.33 294.371 2137.68 299.375 2137.56C304.38 2137.45 308.886 2138.36 312.893 2140.29C316.836 2142.2 320.081 2144.59 322.629 2147.46C326.004 2151.4 330.058 2157.57 334.792 2165.99L341.609 2178.1L376.323 2158.57L386.779 2177.15L294.752 2228.93ZM299.864 2201.59L325.978 2186.9L320.256 2176.73C316.135 2169.4 312.898 2164.78 310.546 2162.85C308.195 2160.92 305.605 2159.85 302.777 2159.62C299.926 2159.35 297.14 2159.98 294.42 2161.51C291.072 2163.39 288.863 2165.93 287.794 2169.12C286.724 2172.32 286.765 2175.57 287.917 2178.89C288.746 2181.34 291.045 2185.92 294.813 2192.61L299.864 2201.59Z" fill="white"/>
<path d="M208.765 2061.6L197.239 2031.84L257.485 1987.96L183.475 1996.31L171.923 1966.49L270.39 1928.35L277.545 1946.82L200.034 1976.84L285.116 1966.37L292.531 1985.51L222.566 2035.01L300.077 2004.99L307.232 2023.46L208.765 2061.6Z" fill="white"/>
<path d="M191.33 1755.29C203.27 1755.84 212.798 1759.09 219.911 1765.06C226.968 1771 231.748 1779.49 234.253 1790.54C237.352 1804.22 235.239 1816.51 227.914 1827.43C220.543 1838.36 208.755 1845.66 192.551 1849.33C175.41 1853.21 161.107 1851.8 149.641 1845.09C138.128 1838.4 130.737 1827.84 127.468 1813.41C124.614 1800.81 126.018 1789.74 131.681 1780.18C135.023 1774.5 140.549 1769.56 148.261 1765.35L157.842 1784.82C152.78 1787.24 149.143 1790.75 146.933 1795.34C144.712 1799.88 144.228 1804.91 145.48 1810.44C147.21 1818.07 151.356 1823.66 157.918 1827.19C164.469 1830.68 173.88 1831.03 186.15 1828.25C199.17 1825.3 207.912 1820.86 212.377 1814.92C216.842 1808.99 218.225 1802.27 216.527 1794.78C215.275 1789.26 212.442 1784.9 208.027 1781.71C203.613 1778.53 197.439 1776.93 189.506 1776.9L191.33 1755.29Z" fill="white"/>
<path d="M101.676 1641.69L146.446 1637.72C145.548 1633.02 144.043 1629.93 141.934 1628.43C139.824 1626.93 134.141 1624.83 124.887 1622.13C113.112 1618.74 105.64 1614.94 102.471 1610.74C99.3057 1606.59 97.2877 1599.61 96.4169 1589.8C96.3745 1589.32 96.2593 1588.3 96.0712 1586.72L111.784 1585.33L111.98 1588.35C112.366 1592.7 113.199 1595.83 114.477 1597.74C115.708 1599.66 117.479 1601.14 119.79 1602.19C122.1 1603.24 126.784 1604.68 133.841 1606.51C137.591 1607.48 140.753 1608.62 143.329 1609.93C145.9 1611.2 148.431 1613.65 150.924 1617.29C151.843 1612.43 154.199 1608.29 157.993 1604.87C161.782 1601.4 167.22 1597.5 174.307 1593.15L201.875 1576.24L204.093 1601.21L178.016 1616.18C177.65 1616.41 176.945 1616.88 175.9 1617.6C175.538 1617.87 173.967 1618.9 171.185 1620.69C166.261 1623.88 163.232 1626.41 162.098 1628.3C160.959 1630.14 160.525 1632.85 160.796 1636.44L206.858 1632.35L208.744 1653.59L103.562 1662.93L101.676 1641.69Z" fill="white"/>
<path d="M95.4934 1462.15L165.722 1465.36L97.4466 1419.41L98.4167 1398.19L203.903 1403.01L202.992 1422.94L134.131 1419.79L201.042 1465.61L200.069 1486.91L94.5824 1482.09L95.4934 1462.15Z" fill="white"/>
<path d="M115.246 1265.62L184.337 1278.61L123.152 1223.57L127.078 1202.69L230.857 1222.2L227.17 1241.81L159.424 1229.07L219.277 1283.79L215.338 1304.74L111.56 1285.23L115.246 1265.62ZM97.6599 1216.87C103.972 1218.64 108.596 1221.86 111.531 1226.52C114.429 1231.12 115.288 1236.55 114.107 1242.83C112.927 1249.11 110.148 1253.89 105.768 1257.17C101.351 1260.39 95.8797 1261.69 89.3549 1261.04L91.1782 1251.35C94.5912 1251.65 97.3615 1250.95 99.4891 1249.24C101.57 1247.53 102.974 1244.74 103.701 1240.87C104.429 1237 104.134 1233.9 102.816 1231.55C101.452 1229.19 99.1252 1227.53 95.8365 1226.57L97.6599 1216.87Z" fill="white"/>
<path d="M220.066 921.601L234.287 893.035L307.307 907.984L251.268 858.925L265.52 830.294L360.051 877.354L351.223 895.086L276.811 858.042L341.882 913.851L332.733 932.228L249.012 913.884L323.424 950.928L314.597 968.66L220.066 921.601Z" fill="white"/>
<path d="M451.896 734.096L426.947 727.94L402.806 762.564L417.496 783.432L404.56 801.985L341.464 707.852L354.359 689.358L465.162 715.07L451.896 734.096ZM408.439 723.377L367.975 712.901L391.961 747.012L408.439 723.377Z" fill="white"/>
<path d="M459.426 557.436L522.799 618.315L543.957 596.29L480.584 535.412L495.305 520.088L558.678 580.967L580.534 558.215L517.162 497.336L531.882 482.012L608.185 555.113L520.807 645.967L444.656 572.812L459.426 557.436Z" fill="white"/>
<path d="M635.374 394.147L677.874 450.147L669.456 368.281L686.382 355.435L750.22 439.55L734.326 451.612L692.654 396.702L700.302 477.435L683.318 490.324L619.48 406.209L635.374 394.147Z" fill="white"/>
<path d="M781.399 293.281L800.02 282.897L820.262 319.196L856.75 298.849L836.508 262.55L855.13 252.166L906.558 344.392L887.937 354.776L865.45 314.451L828.962 334.798L851.449 375.123L832.828 385.507L781.399 293.281Z" fill="white"/>
<path d="M968.332 228.011C968.656 222.13 969.984 216.456 972.317 210.99C974.694 205.507 977.825 200.918 981.708 197.224C986.86 192.275 993.451 188.267 1001.48 185.199C1016.01 179.647 1029.36 179.717 1041.5 185.409C1053.69 191.085 1062.86 201.952 1068.99 218.011C1075.08 233.936 1075.51 248.06 1070.3 260.384C1065.07 272.663 1055.21 281.57 1040.72 287.105C1026.05 292.708 1012.68 292.7 1000.61 287.081C988.527 281.416 979.486 270.734 973.488 255.033C969.65 244.985 967.931 235.978 968.332 228.011ZM1011.21 269C1018.56 272.771 1026.21 273.14 1034.15 270.107C1042.09 267.074 1047.5 261.741 1050.4 254.107C1053.32 246.412 1052.59 236.844 1048.22 225.405C1043.9 214.101 1038.19 206.619 1031.09 202.958C1024.03 199.281 1016.39 199.01 1008.19 202.146C999.977 205.282 994.439 210.636 991.574 218.207C988.692 225.733 989.419 235.171 993.754 246.521C998.021 257.69 1003.84 265.183 1011.21 269Z" fill="white"/>
<path d="M1256.39 189.867C1255.85 201.808 1252.59 211.335 1246.62 218.45C1240.69 225.507 1232.19 230.288 1221.14 232.794C1207.47 235.895 1195.17 233.783 1184.25 226.46C1173.33 219.09 1166.02 207.303 1162.35 191.099C1158.46 173.959 1159.87 159.655 1166.58 148.188C1173.28 136.675 1183.84 129.283 1198.26 126.012C1210.86 123.156 1221.93 124.559 1231.49 130.222C1237.17 133.562 1242.12 139.088 1246.33 146.799L1226.86 156.383C1224.43 151.321 1220.92 147.684 1216.34 145.475C1211.8 143.255 1206.76 142.771 1201.24 144.024C1193.6 145.755 1188.02 149.901 1184.48 156.464C1181 163.015 1180.64 172.426 1183.43 184.696C1186.38 197.715 1190.82 206.457 1196.76 210.921C1202.69 215.385 1209.41 216.768 1216.9 215.069C1222.43 213.816 1226.78 210.982 1229.97 206.568C1233.15 202.153 1234.75 195.979 1234.78 188.046L1256.39 189.867Z" fill="white"/>
<path d="M1369.84 118.426L1338.63 121.242L1337.03 103.45L1420.6 95.9107L1422.21 113.702L1391.08 116.511L1398.96 203.889L1377.72 205.804L1369.84 118.426Z" fill="white"/>
<path d="M1525.07 93.6251L1559.25 95.0135C1572.21 95.5398 1580.63 96.4105 1584.52 97.6258C1590.5 99.4548 1595.43 103.115 1599.29 108.606C1603.15 114.05 1604.91 120.97 1604.57 129.367C1604.31 135.844 1602.91 141.242 1600.38 145.561C1597.85 149.88 1594.71 153.236 1590.96 155.631C1587.26 157.98 1583.52 159.486 1579.75 160.15C1574.62 160.951 1567.24 161.156 1557.59 160.764L1543.7 160.2L1542.09 200L1520.78 199.135L1525.07 93.6251ZM1544.43 142.279L1556.09 142.753C1564.49 143.094 1570.12 142.77 1573 141.781C1575.87 140.793 1578.15 139.155 1579.83 136.868C1581.56 134.584 1582.48 131.882 1582.61 128.763C1582.77 124.925 1581.77 121.712 1579.61 119.125C1577.46 116.539 1574.67 114.864 1571.24 114.1C1568.71 113.517 1563.61 113.069 1555.94 112.757L1545.65 112.339L1544.43 142.279Z" fill="white"/>
<path d="M1698.7 160.317C1700.63 149.735 1703.83 141.143 1708.31 134.539C1711.64 129.679 1715.71 125.517 1720.54 122.053C1725.42 118.598 1730.48 116.298 1735.71 115.154C1742.68 113.594 1750.4 113.584 1758.85 115.126C1774.16 117.917 1785.53 124.895 1792.96 136.061C1800.44 147.237 1802.64 161.28 1799.56 178.193C1796.5 194.963 1789.55 207.265 1778.7 215.099C1767.86 222.885 1754.81 225.387 1739.55 222.605C1724.1 219.788 1712.68 212.849 1705.27 201.785C1697.88 190.675 1695.69 176.852 1698.7 160.317ZM1720.45 163.549C1718.3 175.312 1719.39 184.736 1723.71 191.821C1728.04 198.858 1734.39 203.139 1742.75 204.664C1751.11 206.188 1758.51 204.437 1764.94 199.411C1771.43 194.346 1775.77 185.79 1777.97 173.743C1780.14 161.839 1779.13 152.479 1774.96 145.665C1770.83 138.86 1764.44 134.669 1755.8 133.093C1747.15 131.517 1739.64 133.223 1733.27 138.21C1726.9 143.151 1722.62 151.597 1720.45 163.549Z" fill="white"/>
<path d="M1933.25 160.261L1910.89 226.913L1973.81 173.868L1993.96 180.625L1960.38 280.74L1941.46 274.394L1963.38 209.04L1900.97 260.81L1880.75 254.03L1914.33 153.916L1933.25 160.261Z" fill="white"/>
<path d="M2111.47 250.57L2083.37 236.724L2091.26 220.699L2166.54 257.782L2158.64 273.807L2130.6 259.992L2091.83 338.694L2072.7 329.272L2111.47 250.57Z" fill="white"/>
<path d="M2257 310.249L2322.1 353.753L2312.17 368.605L2264.8 336.948L2251.79 356.412L2295.87 385.868L2285.99 400.66L2241.91 371.204L2225.94 395.1L2274.99 427.877L2265.1 442.67L2198.33 398.046L2257 310.249Z" fill="white"/>
<path d="M2471.43 475.903L2401.37 554.918L2385.42 540.774L2443.62 475.126L2419.85 454.053L2389.94 487.793C2381.37 497.459 2375.06 503.927 2371 507.199C2366.98 510.434 2362.75 512.015 2358.33 511.941C2353.97 511.863 2349.13 509.466 2343.81 504.751C2341.94 503.095 2338.71 499.905 2334.1 495.181L2345.05 482.839L2348.56 486.046C2351.9 489.009 2354.54 490.551 2356.49 490.672C2358.43 490.793 2360.97 489.093 2364.09 485.571L2376.08 471.941L2416.07 426.829L2471.43 475.903Z" fill="white"/>
<path d="M2565.1 573.325L2532.99 600.727L2551.51 622.423C2560.24 632.65 2564.16 642.089 2563.27 650.738C2562.42 659.424 2558.64 666.62 2551.96 672.325C2546.48 677.001 2540.64 679.587 2534.44 680.085C2528.23 680.582 2522.91 679.633 2518.46 677.238C2514.09 674.849 2509.03 670.294 2503.3 663.573L2470.94 625.66L2551.26 557.108L2565.1 573.325ZM2498.26 630.374L2511.73 646.153C2516.09 651.266 2519.35 654.607 2521.51 656.174C2523.7 657.71 2526.33 658.496 2529.4 658.534C2532.49 658.608 2535.31 657.554 2537.87 655.372C2541.56 652.224 2543.12 648.584 2542.57 644.452C2542.04 640.357 2539.05 635.114 2533.59 628.722L2519.52 612.23L2498.26 630.374Z" fill="white"/>
<path d="M2673.18 712.188L2684.62 730.184L2649.54 752.471L2671.94 787.734L2707.02 765.448L2718.45 783.444L2629.32 840.068L2617.89 822.072L2656.86 797.313L2634.46 762.05L2595.49 786.808L2584.05 768.812L2673.18 712.188Z" fill="white"/>
<path d="M2782.68 904.733L2743.99 921.591L2755.38 947.741C2758.37 954.609 2759.99 960.921 2760.25 966.676C2760.57 972.456 2759.02 978.052 2755.62 983.464C2752.26 988.856 2747.45 992.914 2741.2 995.637C2734.64 998.495 2728.24 999.243 2721.99 997.88C2715.78 996.498 2710.99 994.03 2707.61 990.475C2704.24 986.964 2700.8 981.158 2697.27 973.058L2677.36 927.361L2774.17 885.186L2782.68 904.733ZM2702.12 939.831L2710.43 958.915C2713.08 964.99 2715.21 969.092 2716.82 971.22C2718.49 973.373 2720.78 974.913 2723.7 975.842C2726.64 976.814 2729.63 976.639 2732.66 975.315C2736.98 973.436 2739.54 970.485 2740.36 966.464C2741.19 962.486 2739.87 956.513 2736.4 948.545L2727.74 928.668L2702.12 939.831ZM2814.27 977.24L2822.79 996.786L2725.98 1038.96L2717.46 1019.42L2814.27 977.24Z" fill="white"/>
<path d="M2864.3 1125.78L2796.3 1143.59L2875.15 1167.17L2880.53 1187.73L2778.38 1214.48L2773.32 1195.18L2840.01 1177.71L2762.5 1153.86L2757.1 1133.24L2859.25 1106.48L2864.3 1125.78ZM2901.05 1162.32C2894.59 1163.42 2889.03 1162.49 2884.39 1159.54C2879.8 1156.62 2876.7 1152.07 2875.08 1145.89C2873.46 1139.71 2873.93 1134.2 2876.49 1129.37C2879.1 1124.56 2883.49 1121.05 2889.66 1118.84L2892.16 1128.39C2888.95 1129.57 2886.75 1131.39 2885.55 1133.84C2884.4 1136.28 2884.33 1139.4 2885.32 1143.21C2886.32 1147.02 2887.92 1149.7 2890.11 1151.26C2892.36 1152.81 2895.17 1153.31 2898.55 1152.77L2901.05 1162.32Z" fill="white"/>
<path d="M2915.99 1502.23L2871.04 1501.89C2871.49 1506.65 2872.69 1509.88 2874.65 1511.57C2876.6 1513.27 2882.06 1515.9 2891.01 1519.47C2902.41 1523.97 2909.48 1528.47 2912.23 1532.96C2914.98 1537.39 2916.32 1544.54 2916.25 1554.38C2916.25 1554.86 2916.26 1555.89 2916.3 1557.48L2900.53 1557.36L2900.62 1554.34C2900.65 1549.97 2900.12 1546.77 2899.03 1544.74C2897.99 1542.72 2896.37 1541.07 2894.17 1539.81C2891.97 1538.54 2887.45 1536.66 2880.6 1534.16C2876.96 1532.84 2873.92 1531.4 2871.48 1529.84C2869.05 1528.34 2866.76 1525.65 2864.63 1521.8C2863.25 1526.54 2860.51 1530.43 2856.4 1533.48C2852.3 1536.57 2846.51 1539.93 2839.04 1543.58L2809.98 1557.77L2810.16 1532.7L2837.56 1520.3C2837.94 1520.11 2838.69 1519.71 2839.8 1519.09C2840.18 1518.85 2841.85 1517.98 2844.79 1516.46C2849.99 1513.76 2853.25 1511.53 2854.56 1509.76C2855.87 1508.05 2856.56 1505.39 2856.64 1501.78L2810.4 1501.44L2810.55 1480.12L2916.15 1480.91L2915.99 1502.23Z" fill="white"/>
<path d="M2881.68 1658.42C2886.66 1661.57 2890.96 1665.49 2894.6 1670.19C2898.24 1674.94 2900.72 1679.9 2902.06 1685.09C2903.87 1692 2904.17 1699.71 2902.94 1708.22C2900.71 1723.62 2894.16 1735.24 2883.27 1743.08C2872.38 1750.96 2858.42 1753.68 2841.41 1751.22C2824.54 1748.78 2811.99 1742.29 2803.76 1731.73C2795.58 1721.19 2792.6 1708.24 2794.82 1692.89C2797.07 1677.35 2803.58 1665.67 2814.36 1657.87C2825.19 1650.07 2838.93 1647.37 2855.56 1649.77C2866.21 1651.31 2874.91 1654.2 2881.68 1658.42ZM2825 1675.92C2818.13 1680.51 2814.08 1687.01 2812.87 1695.42C2811.65 1703.83 2813.67 1711.16 2818.93 1717.4C2824.23 1723.7 2832.94 1727.73 2845.06 1729.48C2857.04 1731.21 2866.35 1729.86 2873.01 1725.44C2879.66 1721.06 2883.61 1714.52 2884.87 1705.83C2886.13 1697.13 2884.14 1689.69 2878.93 1683.5C2873.75 1677.32 2865.16 1673.36 2853.13 1671.62C2841.3 1669.91 2831.92 1671.34 2825 1675.92Z" fill="white"/>
<path d="M2847.89 1939.07L2746.53 1909.46L2752.51 1889L2836.72 1913.6L2845.63 1883.11L2802.35 1870.46C2789.95 1866.84 2781.41 1863.89 2776.72 1861.62C2772.07 1859.37 2768.84 1856.22 2767.02 1852.19C2765.23 1848.21 2765.33 1842.81 2767.32 1835.99C2768.02 1833.59 2769.52 1829.31 2771.83 1823.13L2787.66 1827.75L2786.26 1832.29C2785.01 1836.58 2784.74 1839.63 2785.46 1841.44C2786.18 1843.25 2788.8 1844.82 2793.32 1846.14L2810.76 1851.16L2868.63 1868.07L2847.89 1939.07Z" fill="white"/>
<path d="M2775.26 2119.82L2678.95 2076.52L2687.69 2057.07L2767.71 2093.05L2780.73 2064.07L2739.61 2045.59C2727.82 2040.29 2719.77 2036.19 2715.44 2033.3C2711.15 2030.42 2708.38 2026.86 2707.13 2022.61C2705.9 2018.43 2706.75 2013.1 2709.66 2006.61C2710.69 2004.34 2712.77 2000.3 2715.9 1994.49L2730.95 2001.26L2728.93 2005.56C2727.1 2009.64 2726.42 2012.62 2726.88 2014.51C2727.35 2016.41 2729.72 2018.32 2734.02 2020.25L2750.6 2027.63L2805.59 2052.35L2775.26 2119.82Z" fill="white"/>
<path d="M2721.8 2219.57L2680.28 2285.95L2665.13 2276.48L2695.35 2228.17L2675.5 2215.76L2647.39 2260.7L2632.3 2251.27L2660.42 2206.32L2636.05 2191.08L2604.77 2241.1L2589.68 2231.66L2632.27 2163.57L2721.8 2219.57Z" fill="white"/>
<path d="M2562.68 2438.88L2495.23 2382.55L2489.28 2389.68L2457.98 2363.55L2469.34 2349.95L2487.03 2364.72L2529.65 2313.7L2511.96 2298.92L2523.32 2285.32L2554.61 2311.45L2548.88 2318.31C2553.01 2327.45 2559.2 2336.37 2567.45 2345.07C2575.73 2353.81 2586.88 2364.02 2600.88 2375.72L2609.45 2382.88L2562.68 2438.88ZM2534.57 2335.45L2508.85 2366.24L2562.7 2411.21L2582.83 2387.11C2558.21 2366.55 2542.12 2349.33 2534.57 2335.45Z" fill="white"/>
<path d="M2402.95 2533.61C2400.49 2536.18 2399.35 2538.95 2399.54 2541.92C2399.74 2544.89 2401.41 2550.59 2404.58 2559.01C2408.71 2570.05 2410.12 2578.16 2408.82 2583.35C2407.52 2588.48 2403.06 2594.42 2395.44 2601.17C2395.08 2601.49 2394.32 2602.19 2393.17 2603.28L2382.71 2591.47L2385.08 2589.47C2388.31 2586.6 2390.32 2584.09 2391.1 2581.92C2391.9 2579.79 2392.04 2577.49 2391.51 2575.01C2390.98 2572.53 2389.36 2567.9 2386.64 2561.14C2385.19 2557.55 2384.23 2554.33 2383.76 2551.47C2383.25 2548.65 2383.71 2545.16 2385.16 2541C2380.67 2543.11 2375.93 2543.65 2370.92 2542.63C2365.91 2541.68 2359.56 2539.65 2351.85 2536.53L2321.87 2524.4L2340.63 2507.78L2368.23 2519.81C2368.59 2520.01 2369.39 2520.29 2370.62 2520.67C2371.39 2520.96 2373.13 2521.63 2375.86 2522.68C2381.21 2524.67 2385 2525.61 2387.22 2525.51C2389.44 2525.4 2391.5 2524.51 2393.4 2522.82L2362.74 2488.2L2378.33 2474.4L2408.99 2509.02C2410.82 2507.4 2411.96 2505.49 2412.39 2503.31C2412.83 2501.12 2412.34 2497.23 2410.91 2491.63C2410.11 2488.49 2409.68 2486.66 2409.61 2486.15C2409.45 2485.32 2409.27 2484.49 2409.04 2483.66L2400.43 2454.82L2419.2 2438.2L2427.61 2469.43C2429.7 2477.14 2430.96 2483.6 2431.39 2488.79C2431.82 2494.06 2430.68 2498.82 2427.97 2503.08C2432.28 2502.15 2435.81 2502.07 2438.55 2502.85C2441.29 2503.7 2444.38 2505.06 2447.84 2506.94C2454.1 2510.38 2458.44 2512.53 2460.87 2513.39C2463.27 2514.28 2465.6 2514.46 2467.88 2513.92C2470.12 2513.41 2472.97 2511.62 2476.42 2508.57C2476.85 2508.18 2477.52 2507.56 2478.42 2506.7L2488.88 2518.51C2487.66 2519.52 2486.87 2520.19 2486.51 2520.51C2478.79 2527.35 2472.28 2531.09 2467.01 2531.72C2461.73 2532.29 2453.92 2529.88 2443.56 2524.48C2435.52 2520.32 2430.05 2517.95 2427.16 2517.37C2424.26 2516.85 2421.39 2517.66 2418.54 2519.8L2448.34 2553.45L2432.75 2567.25L2402.95 2533.61Z" fill="white"/>
<path d="M1804.93 2841.81C1802.34 2846.32 1799.57 2850.69 1796.62 2854.93C1795.46 2856.64 1794.72 2857.73 1794.43 2858.18C1795.64 2858.13 1799.16 2858.2 1804.99 2858.42C1809.2 2858.58 1811.98 2858.76 1813.35 2858.97L1811.76 2872.24C1805.08 2871.03 1799.01 2869.42 1793.54 2867.41C1796.26 2874.84 1798.12 2880.98 1799.13 2885.82L1786.57 2888.43C1785.86 2884.99 1785.19 2878.56 1784.56 2869.13C1783.7 2869.7 1781.86 2871.04 1779.06 2873.14C1775.23 2875.94 1771.67 2878.4 1768.38 2880.5L1761.99 2868.51C1766.97 2866.25 1772.77 2863.85 1779.4 2861.3L1768.97 2853.53C1766.87 2851.95 1765.21 2850.66 1763.97 2849.64L1773.28 2840.28L1786.06 2854.03C1787.88 2848.36 1790.05 2842.27 1792.57 2835.76L1804.93 2841.81Z" fill="white"/>
<path d="M1666.08 2865.5C1663.03 2869.72 1659.82 2873.78 1656.46 2877.7C1655.12 2879.28 1654.28 2880.28 1653.94 2880.71C1655.15 2880.78 1658.65 2881.22 1664.43 2882.03C1668.59 2882.62 1671.34 2883.08 1672.68 2883.43L1669.74 2896.47C1663.22 2894.58 1657.35 2892.35 1652.12 2889.8C1654.05 2897.47 1655.28 2903.76 1655.78 2908.68L1643.02 2909.98C1642.67 2906.5 1642.66 2900.03 1643 2890.58C1642.08 2891.06 1640.12 2892.2 1637.12 2894C1633.02 2896.4 1629.23 2898.48 1625.74 2900.23L1620.62 2887.65C1625.8 2885.91 1631.82 2884.12 1638.68 2882.26L1629.09 2873.46C1627.18 2871.68 1625.65 2870.22 1624.52 2869.08L1634.75 2860.72L1646.05 2875.72C1648.44 2870.26 1651.22 2864.43 1654.4 2858.21L1666.08 2865.5Z" fill="white"/>
<path d="M1525.52 2874.79C1522.05 2878.67 1518.45 2882.39 1514.7 2885.94C1513.21 2887.38 1512.27 2888.29 1511.88 2888.67C1513.08 2888.86 1516.52 2889.66 1522.18 2891.06C1526.26 2892.08 1528.95 2892.83 1530.24 2893.31L1525.98 2905.98C1519.69 2903.42 1514.07 2900.61 1509.13 2897.53C1510.27 2905.36 1510.84 2911.74 1510.83 2916.69L1498.01 2916.67C1498.02 2913.17 1498.68 2906.73 1499.99 2897.37C1499.02 2897.75 1496.96 2898.69 1493.79 2900.17C1489.46 2902.13 1485.47 2903.81 1481.82 2905.19L1478.02 2892.15C1483.36 2890.96 1489.53 2889.79 1496.54 2888.65L1487.91 2878.91C1486.19 2876.94 1484.82 2875.33 1483.81 2874.08L1494.84 2866.82L1504.54 2882.9C1507.48 2877.72 1510.85 2872.2 1514.65 2866.35L1525.52 2874.79Z" fill="white"/>
<path d="M1384.75 2869.59C1380.91 2873.1 1376.94 2876.43 1372.85 2879.57C1371.22 2880.85 1370.19 2881.66 1369.77 2882C1370.94 2882.32 1374.27 2883.46 1379.76 2885.44C1383.72 2886.87 1386.32 2887.89 1387.56 2888.5L1382.01 2900.66C1376.02 2897.48 1370.72 2894.1 1366.12 2890.53C1366.45 2898.43 1366.36 2904.84 1365.85 2909.76L1353.1 2908.43C1353.46 2904.94 1354.78 2898.61 1357.04 2889.43C1356.04 2889.71 1353.89 2890.43 1350.59 2891.58C1346.08 2893.09 1341.94 2894.35 1338.17 2895.35L1335.73 2881.99C1341.16 2881.35 1347.42 2880.82 1354.51 2880.4L1346.92 2869.83C1345.41 2867.69 1344.22 2865.95 1343.34 2864.61L1355.06 2858.52L1363.06 2875.51C1366.51 2870.65 1370.43 2865.51 1374.81 2860.08L1384.75 2869.59Z" fill="white"/>
<path d="M1245.28 2849.98C1241.09 2853.07 1236.8 2855.98 1232.41 2858.68C1230.65 2859.79 1229.55 2860.49 1229.1 2860.79C1230.23 2861.22 1233.43 2862.7 1238.69 2865.23C1242.47 2867.05 1244.95 2868.34 1246.12 2869.07L1239.36 2880.61C1233.73 2876.82 1228.8 2872.92 1224.6 2868.89C1224.11 2876.79 1223.37 2883.16 1222.35 2888L1209.8 2885.36C1210.52 2881.93 1212.48 2875.77 1215.67 2866.87C1214.65 2867.05 1212.44 2867.54 1209.03 2868.35C1204.4 2869.39 1200.15 2870.21 1196.3 2870.82L1195.24 2857.28C1200.7 2857.2 1206.98 2857.32 1214.08 2857.63L1207.62 2846.34C1206.33 2844.06 1205.32 2842.2 1204.59 2840.77L1216.88 2835.92L1223.09 2853.64C1227.02 2849.16 1231.45 2844.45 1236.36 2839.5L1245.28 2849.98Z" fill="white"/>
<path d="M1501.3 546.991C1335.86 546.991 1170.43 589.78 1022.2 675.358C725.751 846.513 543.106 1162.86 543.106 1505.17C543.106 1608.78 559.84 1710.02 591.399 1805.57C664.102 2025.69 815.482 2215.64 1022.2 2334.99C1318.65 2506.14 1683.94 2506.14 1980.39 2334.99C2276.84 2163.83 2459.48 1847.48 2459.48 1505.17C2459.48 1162.86 2276.84 846.513 1980.39 675.358C1832.16 589.78 1666.73 546.991 1501.3 546.991ZM1501.3 566.979C1663.27 566.979 1825.24 608.879 1970.39 692.678C2260.68 860.277 2439.48 1169.97 2439.48 1505.17C2439.48 1760.7 2335.57 2001.4 2157.58 2175.64H1559.63L1679.63 2055.64L1557.92 2056.6L1439.63 2174.89V2176.38L1558.88 2295.64H2006.62C1994.74 2303.22 1982.67 2310.58 1970.39 2317.66C1680.1 2485.26 1322.49 2485.26 1032.2 2317.66C963.203 2277.83 900.51 2229.96 845.013 2175.64H1319.63V2295.64H1439.63V2176.38L1438.88 2175.64L1439.63 2174.89V2053.77L740.757 2054.52C627.135 1897.19 563.106 1705.75 563.106 1505.17C563.106 1169.97 741.911 860.277 1032.2 692.678C1177.35 608.879 1339.32 566.979 1501.3 566.979Z" fill="white"/>
<path fill-rule="evenodd" clip-rule="evenodd" d="M1216 1238V1338L956 1338.25V1679H1057V1419H1216V1679H1337V1400.62L1436.19 1599H1516.84L1596 1401.1V1679H1717V1539.52L1896.33 1679H2058L1817.37 1498.52L2058.15 1338H1896.35L1717 1457.57V1238H1596.22L1476.47 1437.58L1336.76 1238H1216Z" fill="white"/>
<path d="M858.189 941.26C811.168 941.26 773.315 981.742 773.315 1032.03V1886.77C773.315 1937.05 811.168 1977.54 858.189 1977.54H2156.05C2203.07 1977.54 2240.92 1937.05 2240.92 1886.77V1032.03C2240.92 981.742 2203.07 941.26 2156.05 941.26H858.189ZM897.925 997.719H2112.49V1921.08H897.925V997.719ZM2173.59 1406.42C2183.16 1406.42 2192.33 1409.93 2199.09 1416.16C2205.85 1422.39 2209.65 1430.84 2209.65 1439.66C2209.65 1444.02 2208.72 1448.34 2206.91 1452.38C2205.1 1456.41 2202.44 1460.07 2199.09 1463.16C2195.74 1466.24 2191.77 1468.69 2187.39 1470.36C2183.02 1472.03 2178.33 1472.89 2173.59 1472.89C2168.86 1472.89 2164.17 1472.03 2159.79 1470.36C2155.41 1468.69 2151.44 1466.24 2148.09 1463.16C2144.74 1460.07 2142.09 1456.41 2140.27 1452.38C2138.46 1448.34 2137.53 1444.02 2137.53 1439.66C2137.53 1430.84 2141.33 1422.39 2148.09 1416.16C2154.85 1409.93 2164.03 1406.42 2173.59 1406.42ZM835.983 1424.07C840.313 1424.07 844.466 1425.75 847.528 1428.73C850.59 1431.72 852.31 1435.76 852.31 1439.98C852.31 1444.2 850.59 1448.25 847.528 1451.23C844.466 1454.21 840.313 1455.89 835.983 1455.89C833.839 1455.89 831.716 1455.48 829.735 1454.68C827.754 1453.88 825.954 1452.71 824.438 1451.23C822.922 1449.75 821.719 1448 820.898 1446.07C820.078 1444.14 819.655 1442.07 819.655 1439.98C819.655 1437.89 820.078 1435.82 820.898 1433.89C821.719 1431.96 822.922 1430.21 824.438 1428.73C825.954 1427.25 827.754 1426.08 829.735 1425.28C831.716 1424.48 833.839 1424.07 835.983 1424.07Z" fill="white"/>
<path d="M1501.44 2784C2208.37 2784 2781.44 2210.92 2781.44 1504C2781.44 797.076 2208.37 224 1501.44 224C794.519 224 221.443 797.076 221.443 1504C221.443 2210.92 794.519 2784 1501.44 2784Z" stroke="white" stroke-width="10"/>
</g>
<defs>
<clipPath id="clip0_1035_70">
<rect width="3000" height="3000" fill="white"/>
</clipPath>
</defs>
</svg>
